<svg xmlns="http://www.w3.org/2000/svg" viewBox="0 0 499.02 368.08"><defs><style>.cls-1{fill:#e6e6e6;}.cls-2{fill:#fff;}.cls-3{fill:#d2d2d2;}.cls-11,.cls-4,.cls-6,.cls-8{fill:none;}.cls-4{stroke:#666;stroke-width:0.53px;}.cls-11,.cls-4,.cls-8{stroke-miterlimit:10;}.cls-5{fill:#50ea4b;}.cls-6{stroke:#a1a1a1;stroke-linecap:round;stroke-linejoin:round;stroke-width:1.05px;}.cls-7{fill:#36d84a;}.cls-8{stroke:#d2d2d2;stroke-width:1.82px;}.cls-9{fill:#2c2b29;}.cls-10{fill:#acacac;}.cls-11{stroke:#000;stroke-width:0.59px;}.cls-12{fill:#737373;}.cls-13{fill:#2d2c2a;}.cls-14{fill:#4de94a;}.cls-15{fill:#807eba;}.cls-16{fill:#999;}.cls-17{fill:#767573;}</style></defs><title>business</title><g id="Layer_2" data-name="Layer 2"><g id="Layer_1-2" data-name="Layer 1"><rect class="cls-1" width="240.2" height="60.15"/><circle class="cls-2" cx="21.27" cy="35.83" r="3.19"/><polygon class="cls-3" points="240.2 60.15 0 60.15 0 52.24 0 44.33 240.2 44.33 240.2 52.24 240.2 60.15"/><line class="cls-4" y1="52.24" x2="240.2" y2="52.24"/><circle class="cls-5" cx="11.67" cy="35.83" r="3.19"/><path class="cls-6" d="M79.41,73.2c-3.08,3.75-4,7-3.93,9.72.13,7.62,7.88,10.93,8,18.5,0,3.65-1.73,6.86-3.93,9.5"/><path class="cls-6" d="M93,73.2c-3.07,3.75-4,7-3.92,9.72.13,7.62,7.88,10.93,8,18.5,0,3.65-1.72,6.86-3.92,9.5"/><path class="cls-6" d="M106.5,73.2c-3.07,3.75-4,7-3.93,9.72.14,7.62,7.88,10.93,8,18.5,0,3.65-1.73,6.86-3.93,9.5"/><path class="cls-6" d="M120.05,73.2c-3.07,3.75-4,7-3.93,9.72.14,7.62,7.88,10.93,8,18.5,0,3.65-1.73,6.86-3.93,9.5"/><path class="cls-6" d="M133.6,73.2c-3.08,3.75-4,7-3.93,9.72.13,7.62,7.88,10.93,8,18.5,0,3.65-1.73,6.86-3.93,9.5"/><path class="cls-6" d="M147.14,73.2c-3.07,3.75-4,7-3.92,9.72.13,7.62,7.88,10.93,7.95,18.5,0,3.65-1.72,6.86-3.92,9.5"/><path class="cls-6" d="M160.69,73.2c-3.07,3.75-4,7-3.93,9.72.14,7.62,7.89,10.93,8,18.5,0,3.65-1.73,6.86-3.93,9.5"/><rect class="cls-1" x="257.52" width="240.2" height="60.15"/><circle class="cls-2" cx="278.79" cy="35.83" r="3.19"/><polygon class="cls-3" points="497.72 60.15 257.52 60.15 257.52 52.24 257.52 44.33 497.72 44.33 497.72 52.24 497.72 60.15"/><line class="cls-4" x1="257.52" y1="52.24" x2="497.72" y2="52.24"/><circle class="cls-5" cx="269.19" cy="35.83" r="3.19"/><path class="cls-6" d="M336.93,73.2c-3.07,3.75-4,7-3.93,9.72.14,7.62,7.88,10.93,8,18.5,0,3.65-1.73,6.86-3.93,9.5"/><path class="cls-6" d="M350.48,73.2c-3.07,3.75-4,7-3.93,9.72.13,7.62,7.88,10.93,8,18.5,0,3.65-1.73,6.86-3.93,9.5"/><path class="cls-6" d="M364,73.2c-3.07,3.75-4,7-3.92,9.72.13,7.62,7.88,10.93,7.95,18.5,0,3.65-1.72,6.86-3.92,9.5"/><path class="cls-6" d="M377.57,73.2c-3.07,3.75-4,7-3.93,9.72.14,7.62,7.89,10.93,8,18.5,0,3.65-1.72,6.86-3.92,9.5"/><path class="cls-6" d="M391.12,73.2c-3.07,3.75-4,7-3.93,9.72.14,7.62,7.88,10.93,8,18.5,0,3.65-1.73,6.86-3.93,9.5"/><path class="cls-6" d="M404.67,73.2c-3.07,3.75-4,7-3.93,9.72.14,7.62,7.88,10.93,8,18.5,0,3.65-1.73,6.86-3.93,9.5"/><path class="cls-6" d="M418.21,73.2c-3.07,3.75-4,7-3.92,9.72.13,7.62,7.88,10.93,7.95,18.5,0,3.65-1.72,6.86-3.92,9.5"/><path class="cls-7" d="M127.89,193.24H76.74a25.58,25.58,0,0,1,51.15,0Z"/><path class="cls-7" d="M166.8,368.08H140.12c0-5.14,6-9.3,13.34-9.3S166.8,362.94,166.8,368.08Z"/><path class="cls-8" d="M102.31,167.67a25.58,25.58,0,1,1,51.15,0"/><line class="cls-8" x1="153.46" y1="358.78" x2="153.46" y2="167.67"/><path class="cls-3" d="M214.58,287.37,203.22,298.5l-52.2-52-5.69-5.67-9.12-9.09-2-1.95h0l.36-.37c1.11-1.13,4.58-4.74,10.44-11.28,7.2-8.06,17.68,1.21,17.68,1.21l16.37,21.49Z"/><path class="cls-3" d="M56.72,197.75a17.16,17.16,0,0,1-15.46,17.07c-.56.05-1.13.08-1.7.08a16.93,16.93,0,0,1-10-3.23,16.54,16.54,0,0,1-1.67-1.36l.28.21.21.13a3.11,3.11,0,0,0,.52.25l.17.07.08,0,.18.06.23,0a.93.93,0,0,0,.24,0,2.42,2.42,0,0,0,.47,0l.34,0a3.42,3.42,0,0,0,.71-.13l.18-.06a2,2,0,0,0,.34-.14l.22-.11a2.59,2.59,0,0,0,.31-.19l.28-.21.2-.17.07-.07.13-.14a.13.13,0,0,0,0-.06,1.09,1.09,0,0,0,.13-.17,2.7,2.7,0,0,0,.27-.39l.11-.19a2.41,2.41,0,0,0,.21-.5,1,1,0,0,0,.05-.16,3.43,3.43,0,0,0,.14-.71c0-.11,0-.22,0-.34v-3.72a5.51,5.51,0,0,0,5.51-5.51l0-17.58h0A17.13,17.13,0,0,0,56.7,197.09C56.71,197.31,56.72,197.53,56.72,197.75Z"/><path class="cls-9" d="M39.56,180.6l0,17.58A5.51,5.51,0,0,1,34,203.69v-11a5.51,5.51,0,1,0,0,11v3.72a3.75,3.75,0,0,1-3.75,3.76,3.71,3.71,0,0,1-2.38-.86,2.44,2.44,0,0,1-.29-.27A17.14,17.14,0,0,1,24,190.49l0-.06c.13-.29.29-.58.44-.87a8.38,8.38,0,0,1-.86,0,11.23,11.23,0,1,1,10.79-8.22A17.1,17.1,0,0,1,39.56,180.6Z"/><path class="cls-3" d="M41.26,214.82v5.07A22.4,22.4,0,0,0,29.57,230V211.67a16.93,16.93,0,0,0,10,3.23C40.13,214.9,40.7,214.87,41.26,214.82Z"/><path class="cls-9" d="M151,246.48l-38.58,53.06a26.38,26.38,0,0,1-37.3,0L63.68,287.78a11.09,11.09,0,0,0,14-1.4l25.49-25.48L121.07,243l0,0,1.21-1.21s0,0,0,0l.89-.89,11-11,2,1.95,9.12,9.09Z"/><polygon class="cls-3" points="249.99 240.81 249.99 336.92 9.48 336.92 9.48 240.81 25.18 240.81 25.18 307.27 234.28 307.27 234.28 240.81 249.99 240.81"/><polygon class="cls-10" points="92.34 250.12 85.92 254.91 72.03 240.81 85.59 240.81 84.31 242.09 92.34 250.12"/><path class="cls-9" d="M233.59,285.33l-22.17,21.34-8.2-8.17,11.36-11.13C223.92,275.93,233.59,285.33,233.59,285.33Z"/><polygon class="cls-11" points="241.6 360.09 249.99 360.09 249.99 336.92 233.21 336.92 241.6 360.09"/><polygon class="cls-12" points="241.6 360.09 249.99 360.09 249.99 336.92 233.21 336.92 241.6 360.09"/><path class="cls-13" d="M60.47,193.35a3.74,3.74,0,0,1-3.75,3.74h0A17.13,17.13,0,0,1,39.58,180.6a17.14,17.14,0,0,1,15.32,9.47,3.75,3.75,0,0,1,5.57,3.28Z"/><path class="cls-3" d="M34,192.68v11a5.51,5.51,0,1,1,0-11Z"/><path class="cls-14" d="M85.92,254.91,72.32,265l-7.83-8L50.72,242.94a11.53,11.53,0,0,0-1.94-2.13,11.08,11.08,0,0,0-14.7,16.56,22.35,22.35,0,1,1,37.37-17.15l.58.59Z"/><path class="cls-10" d="M234.29,240.81v66.46H25.18V240.81h1.59a22.26,22.26,0,0,0,7.31,16.56l29.6,30.41,11.46,11.76a26.38,26.38,0,0,0,37.3,0L151,246.48l52.2,52,8.2,8.17,22.17-21.34s-9.67-9.4-19,2l-35.46-46.56Z"/><path class="cls-3" d="M124.61,235.4a9.66,9.66,0,0,1-2.29,6.3s0,0,0,0l-1.21,1.21,0,0L103.13,260.9,77.64,286.38a11.09,11.09,0,0,1-14,1.4l-29.6-30.41a11.08,11.08,0,0,1,14.7-16.56,11.53,11.53,0,0,1,1.94,2.13L64.49,257l7.83,8,13.6-10.12,6.42-4.79,12.5-9.31,1.2-.89a9.84,9.84,0,1,1,18.57-4.52Z"/><path class="cls-15" d="M134.25,229.77l-11,11-.89.89A9.83,9.83,0,1,0,106,239.92l-1.2.89-12.5,9.31-8-8,1.28-1.28L115.45,211Z"/><polygon class="cls-12" points="17.87 360.09 9.48 360.09 9.48 336.92 26.26 336.92 17.87 360.09"/><path class="cls-3" d="M464.91,173.78v11.83c-.18.08-.36.17-.55.24v8.57a25.51,25.51,0,0,0-14.78.13v-8.9a18,18,0,0,1-8.44-24.46,6.22,6.22,0,0,0,1.13-.2c2.19-.16,5.94,0,7.76,2.47,2.67,3.66,5.44,10.32,9.66,10.32Z"/><path class="cls-9" d="M408.72,343.35v15.27h-9.09v-8.4s-8.81,8.4-30.42,8.4l15.11-15.27Z"/><path class="cls-9" d="M482.62,218.83v36.76H431.75V218.83a25.44,25.44,0,1,1,50.87,0Z"/><rect class="cls-16" x="384.32" y="294.2" width="24.4" height="49.16"/><path class="cls-9" d="M422.93,255.59h59.69a0,0,0,0,1,0,0V294.2a0,0,0,0,1,0,0h-98.3a0,0,0,0,1,0,0v0A38.61,38.61,0,0,1,422.93,255.59Z"/><path class="cls-14" d="M499,229v81.45H424.8a16.09,16.09,0,0,1-16.08-15.63h23V272.77a17.18,17.18,0,0,1,17.18-17.18h33.16v-9.65A16.94,16.94,0,0,1,499,229Z"/><path class="cls-17" d="M482.62,358.62h-53.1c12.19,0,22.14-11.81,22.63-26.61,0-7.12,0-14.33,0-21.56H460c0,7.23,0,14.44,0,21.56C460.48,346.81,470.43,358.62,482.62,358.62Z"/><path class="cls-9" d="M477.64,187.83a8,8,0,1,1-12.74-6.44v-7.61h-5.21c-4.22,0-7-6.66-9.66-10.31-1.82-2.51-5.57-2.64-7.77-2.47a6,6,0,0,1-1.12.19,5.49,5.49,0,0,1-.58,0,6.69,6.69,0,1,1,6.69-6.89,18,18,0,0,1,24.39,25.75A8,8,0,0,1,477.64,187.83Z"/><path class="cls-3" d="M461.65,207.83a12,12,0,0,0-20.59-8.4l-25.68,26.06-34.44,5.65a9.07,9.07,0,1,0-4.76,13.78H422.8c4.59,0,8.95-3.54,8.95-3.54l25.44-24.21h0A12,12,0,0,0,461.65,207.83Z"/><rect class="cls-10" x="275.36" y="244.92" width="156.4" height="10.67"/><rect class="cls-16" x="334.53" y="255.59" width="38.05" height="103.03"/><path class="cls-9" d="M367.05,243.59a2.48,2.48,0,0,0,.19-1.86l-.06-.18a2.24,2.24,0,0,0-.13-.27,1.13,1.13,0,0,0-.12-.21.67.67,0,0,0-.11-.14,1,1,0,0,0-.21-.25,2.45,2.45,0,0,0-1.75-.72H411.6a5,5,0,0,1,5,5H364.86a2.73,2.73,0,0,0,.5,0,1.55,1.55,0,0,0,.23-.06,2.5,2.5,0,0,0,.66-.31l.19-.14.17-.16h0a2.37,2.37,0,0,0,.25-.29.36.36,0,0,0,.07-.1A.72.72,0,0,0,367.05,243.59Z"/><path class="cls-9" d="M362.37,242.44a2.46,2.46,0,0,0,.78,1.8l0,0-33.05-33.06a5,5,0,0,1,0-7L365.89,240h-1A2.49,2.49,0,0,0,362.37,242.44Z"/><path class="cls-17" d="M367.34,242.44a2.34,2.34,0,0,1-.29,1.15.72.72,0,0,1-.12.21.36.36,0,0,1-.07.1,2.37,2.37,0,0,1-.25.29l-.17.17-.19.14a2.5,2.5,0,0,1-.66.31,1.55,1.55,0,0,1-.23.06,2.52,2.52,0,0,1-1,0,2.1,2.1,0,0,1-.24-.06,2.59,2.59,0,0,1-.65-.31l-.32-.26a2.46,2.46,0,0,1-.78-1.8,2.49,2.49,0,0,1,2.49-2.48,2.45,2.45,0,0,1,1.75.72,1,1,0,0,1,.21.25.67.67,0,0,1,.11.14,1.13,1.13,0,0,1,.12.21,2.24,2.24,0,0,1,.13.27l.06.18A2.34,2.34,0,0,1,367.34,242.44Z"/></g></g></svg>