<svg xmlns="http://www.w3.org/2000/svg" viewBox="0 0 537.66 194.54"><defs><style>.cls-1{fill:#666769;}.cls-2,.cls-3,.cls-4,.cls-6,.cls-7,.cls-9{fill:none;stroke:#333;stroke-miterlimit:10;stroke-width:0.5px;}.cls-3{stroke-dasharray:4.02 4.02;}.cls-4{stroke-dasharray:3.85 3.85;}.cls-5{fill:#484c4d;}.cls-6{stroke-dasharray:4.14 4.14;}.cls-7{stroke-dasharray:3.92 3.92;}.cls-8{fill:#424345;}.cls-9{stroke-dasharray:3.98 3.98;}.cls-10{fill:#56585a;}.cls-11{fill:#848689;}</style></defs><title>Cover_Image_Template</title><g id="Layer_2" data-name="Layer 2"><g id="Layer_1-2" data-name="Layer 1"><rect class="cls-1" x="0.25" y="0.25" width="69.41" height="152.75"/><polyline class="cls-2" points="67.66 0.25 69.66 0.25 69.66 2.25"/><line class="cls-3" x1="69.66" y1="6.27" x2="69.66" y2="148.99"/><polyline class="cls-2" points="69.66 151 69.66 153 67.66 153"/><line class="cls-4" x1="63.81" y1="153" x2="4.17" y2="153"/><polyline class="cls-2" points="2.25 153 0.25 153 0.25 151"/><line class="cls-3" x1="0.25" y1="146.98" x2="0.25" y2="4.26"/><polyline class="cls-2" points="0.25 2.25 0.25 0.25 2.25 0.25"/><line class="cls-4" x1="6.1" y1="0.25" x2="65.74" y2="0.25"/><path class="cls-5" d="M69.66,153v41.29H2.3a2.05,2.05,0,0,1-2-2V153Z"/><polyline class="cls-2" points="67.66 153 69.66 153 69.66 155"/><line class="cls-6" x1="69.66" y1="159.14" x2="69.66" y2="190.22"/><polyline class="cls-2" points="69.66 192.29 69.66 194.29 67.66 194.29"/><path class="cls-7" d="M63.74,194.29H2.3a2.05,2.05,0,0,1-2-2V157"/><polyline class="cls-2" points="0.25 155 0.25 153 2.25 153"/><line class="cls-4" x1="6.1" y1="153" x2="65.74" y2="153"/><rect class="cls-1" x="468" y="0.25" width="69.41" height="152.75"/><polyline class="cls-2" points="535.41 0.25 537.41 0.25 537.41 2.25"/><line class="cls-3" x1="537.41" y1="6.27" x2="537.41" y2="148.99"/><polyline class="cls-2" points="537.41 151 537.41 153 535.41 153"/><line class="cls-4" x1="531.56" y1="153" x2="471.92" y2="153"/><polyline class="cls-2" points="470 153 468 153 468 151"/><line class="cls-3" x1="468" y1="146.98" x2="468" y2="4.26"/><polyline class="cls-2" points="468 2.25 468 0.25 470 0.25"/><line class="cls-4" x1="473.85" y1="0.25" x2="533.49" y2="0.25"/><rect class="cls-5" x="468" y="153" width="69.41" height="41.29"/><polyline class="cls-2" points="535.41 153 537.41 153 537.41 155"/><line class="cls-6" x1="537.41" y1="159.14" x2="537.41" y2="190.22"/><polyline class="cls-2" points="537.41 192.29 537.41 194.29 535.41 194.29"/><line class="cls-4" x1="531.56" y1="194.29" x2="471.92" y2="194.29"/><polyline class="cls-2" points="470 194.29 468 194.29 468 192.29"/><line class="cls-6" x1="468" y1="188.15" x2="468" y2="157.07"/><polyline class="cls-2" points="468 155 468 153 470 153"/><line class="cls-4" x1="473.85" y1="153" x2="533.49" y2="153"/><rect class="cls-8" x="69.66" y="153" width="398.34" height="41.29"/><polyline class="cls-2" points="466 153 468 153 468 155"/><line class="cls-6" x1="468" y1="159.14" x2="468" y2="190.22"/><polyline class="cls-2" points="468 192.29 468 194.29 466 194.29"/><line class="cls-9" x1="462.02" y1="194.29" x2="73.65" y2="194.29"/><polyline class="cls-2" points="71.66 194.29 69.66 194.29 69.66 192.29"/><line class="cls-6" x1="69.66" y1="188.15" x2="69.66" y2="157.07"/><polyline class="cls-2" points="69.66 155 69.66 153 71.66 153"/><line class="cls-9" x1="75.64" y1="153" x2="464.01" y2="153"/><rect class="cls-10" x="69.66" y="0.25" width="398.34" height="152.75"/><polyline class="cls-2" points="466 0.25 468 0.25 468 2.25"/><line class="cls-3" x1="468" y1="6.27" x2="468" y2="148.99"/><polyline class="cls-2" points="468 151 468 153 466 153"/><line class="cls-9" x1="462.02" y1="153" x2="73.65" y2="153"/><polyline class="cls-2" points="71.66 153 69.66 153 69.66 151"/><line class="cls-3" x1="69.66" y1="146.98" x2="69.66" y2="4.26"/><polyline class="cls-2" points="69.66 2.25 69.66 0.25 71.66 0.25"/><line class="cls-9" x1="75.64" y1="0.25" x2="464.01" y2="0.25"/><path class="cls-11" d="M250.08,20.31l.48-.56a1.79,1.79,0,0,0,1.19.52c.52,0,.8-.23.8-.59s-.3-.5-.71-.67l-.63-.27a1.32,1.32,0,0,1-.92-1.22,1.39,1.39,0,0,1,1.53-1.29,2,2,0,0,1,1.42.58l-.42.52a1.46,1.46,0,0,0-1-.39c-.43,0-.71.2-.71.53s.35.5.72.65l.62.26a1.27,1.27,0,0,1,.93,1.24A1.46,1.46,0,0,1,251.73,21,2.36,2.36,0,0,1,250.08,20.31Z"/><path class="cls-11" d="M255.46,16.31h1l1.49,4.59H257l-.69-2.44c-.15-.49-.28-1-.42-1.51h0c-.12.5-.26,1-.4,1.51l-.7,2.44H254ZM254.85,19H257v.63h-2.16Z"/><path class="cls-11" d="M258.78,16.31h2.76V17h-2v1.3h1.66V19h-1.66V20.9h-.81Z"/><path class="cls-11" d="M262.7,16.31h2.75V17h-1.94v1.17h1.65v.69h-1.65v1.35h2v.69H262.7Z"/><path class="cls-11" d="M270,20.41,272.23,17h-2v-.69h3v.49L271,20.21h2.24v.69H270Z"/><path class="cls-11" d="M274.06,18.59c0-1.49.83-2.36,2-2.36s2,.88,2,2.36-.83,2.39-2,2.39S274.06,20.07,274.06,18.59Zm3.21,0c0-1-.47-1.65-1.19-1.65s-1.18.62-1.18,1.65.46,1.68,1.18,1.68S277.27,19.61,277.27,18.59Z"/><path class="cls-11" d="M279.37,16.31h.84l1.42,2.58.47,1h0c0-.48-.1-1.06-.1-1.57v-2h.77V20.9H282l-1.42-2.58-.47-1h0c0,.49.1,1,.1,1.55v2h-.77Z"/><path class="cls-11" d="M284.31,16.31h2.76V17h-1.94v1.17h1.64v.69h-1.64v1.35h2v.69h-2.83Z"/><path class="cls-11" d="M238.67,172h.86l.65,2.3c.15.52.25,1,.4,1.49h0c.15-.52.26-1,.4-1.49l.64-2.3h.83l-1.42,4.58h-1Z"/><path class="cls-11" d="M243.34,172h.81v4.58h-.81Z"/><path class="cls-11" d="M245.35,176l.47-.56a1.78,1.78,0,0,0,1.2.53c.51,0,.8-.24.8-.6s-.3-.49-.72-.67l-.62-.27a1.33,1.33,0,0,1-.93-1.22,1.4,1.4,0,0,1,1.54-1.29,2,2,0,0,1,1.41.59l-.42.51a1.45,1.45,0,0,0-1-.39c-.43,0-.72.2-.72.54s.35.49.73.65l.62.25a1.29,1.29,0,0,1,.93,1.24,1.46,1.46,0,0,1-1.65,1.36A2.34,2.34,0,0,1,245.35,176Z"/><path class="cls-11" d="M249.83,172h.81v4.58h-.81Z"/><path class="cls-11" d="M252.15,172h1.47c.94,0,1.63.29,1.63,1.13a1,1,0,0,1-.63,1v0a1,1,0,0,1,.88,1.08c0,.92-.76,1.35-1.76,1.35h-1.59Zm1.4,1.89c.64,0,.91-.25.91-.65s-.3-.61-.9-.61H253v1.26Zm.1,2.05c.67,0,1-.24,1-.75s-.36-.69-1-.69H253V176Z"/><path class="cls-11" d="M256.68,172h.81v3.89h1.91v.69h-2.72Z"/><path class="cls-11" d="M260.55,172h2.75v.68h-1.94v1.17H263v.69h-1.65v1.35h2v.69h-2.82Z"/><path class="cls-11" d="M266.17,174.29c0-1.48.83-2.36,2-2.36s2,.88,2,2.36-.83,2.39-2,2.39S266.17,175.77,266.17,174.29Zm3.21,0c0-1-.47-1.65-1.19-1.65s-1.18.62-1.18,1.65.46,1.69,1.18,1.69S269.38,175.32,269.38,174.29Z"/><path class="cls-11" d="M271.48,172h.84l1.42,2.57.47,1h0c0-.47-.1-1-.1-1.56v-2h.77v4.58h-.84L272.65,174l-.47-1h0c0,.48.1,1,.1,1.54v2h-.77Z"/><path class="cls-11" d="M278.17,172h.92l.81,2.24c.1.29.19.6.29.89h0c.1-.29.19-.6.29-.89l.79-2.24h.92v4.58h-.74v-2.1c0-.42.06-1,.1-1.45h0l-.37,1.06-.75,2.06H280l-.76-2.06-.36-1.06h0c0,.42.1,1,.1,1.45v2.1h-.73Z"/><path class="cls-11" d="M283.5,174.29c0-1.48.82-2.36,2-2.36s2,.88,2,2.36-.83,2.39-2,2.39S283.5,175.77,283.5,174.29Zm3.2,0c0-1-.46-1.65-1.18-1.65s-1.19.62-1.19,1.65.47,1.69,1.19,1.69S286.7,175.32,286.7,174.29Z"/><path class="cls-11" d="M288.81,172h1.46c.94,0,1.63.29,1.63,1.13a1,1,0,0,1-.63,1v0a1,1,0,0,1,.88,1.08c0,.92-.75,1.35-1.76,1.35h-1.58Zm1.39,1.89c.64,0,.91-.25.91-.65s-.3-.61-.9-.61h-.59v1.26Zm.1,2.05c.68,0,1.05-.24,1.05-.75s-.36-.69-1.05-.69h-.68V176Z"/><path class="cls-11" d="M293.33,172h.82v4.58h-.82Z"/><path class="cls-11" d="M295.66,172h.81v3.89h1.9v.69h-2.71Z"/><path class="cls-11" d="M299.52,172h2.76v.68h-1.95v1.17H302v.69h-1.65v1.35h2v.69h-2.83Z"/><path class="cls-11" d="M16.53,12.9h.87L18,15.2c.15.52.25,1,.4,1.49h0c.15-.52.26-1,.4-1.49l.64-2.3h.83l-1.42,4.58H18Z"/><path class="cls-11" d="M21.2,12.9H22v4.58H21.2Z"/><path class="cls-11" d="M23.21,16.89l.48-.56a1.74,1.74,0,0,0,1.19.53c.52,0,.8-.24.8-.6s-.3-.49-.71-.67l-.63-.27a1.33,1.33,0,0,1-.93-1.22A1.4,1.4,0,0,1,25,12.81a2,2,0,0,1,1.41.59l-.41.51a1.46,1.46,0,0,0-1-.39c-.43,0-.72.2-.72.54s.35.49.73.65l.62.25a1.28,1.28,0,0,1,.93,1.24,1.46,1.46,0,0,1-1.65,1.36A2.36,2.36,0,0,1,23.21,16.89Z"/><path class="cls-11" d="M27.69,12.9h.81v4.58h-.81Z"/><path class="cls-11" d="M30,12.9h1.46c.94,0,1.63.29,1.63,1.13a1,1,0,0,1-.63,1v0a1,1,0,0,1,.88,1.08c0,.92-.75,1.35-1.76,1.35H30Zm1.39,1.89c.64,0,.91-.25.91-.65s-.3-.61-.89-.61h-.6v1.26Zm.1,2.05c.68,0,1.05-.24,1.05-.75s-.36-.69-1.05-.69h-.68v1.44Z"/><path class="cls-11" d="M34.54,12.9h.82v3.89h1.9v.69H34.54Z"/><path class="cls-11" d="M38.41,12.9h2.76v.68h-2v1.17h1.65v.69H39.22v1.35h2v.69H38.41Z"/><path class="cls-11" d="M44,15.17c0-1.48.83-2.36,2-2.36s2,.88,2,2.36-.82,2.39-2,2.39S44,16.65,44,15.17Zm3.21,0c0-1-.47-1.65-1.19-1.65s-1.18.62-1.18,1.65.46,1.69,1.18,1.69S47.24,16.2,47.24,15.17Z"/><path class="cls-11" d="M49.34,12.9h.84l1.42,2.57.47,1h0c0-.47-.1-1-.1-1.56v-2h.77v4.58h-.83L50.51,14.9l-.47-1h0c0,.49.11,1,.11,1.55v2h-.78Z"/><path class="cls-11" d="M20.28,21.3H21.5a2,2,0,0,1,2.24,2.27,2,2,0,0,1-2.19,2.31H20.28Zm1.17,3.92c.92,0,1.45-.53,1.45-1.65S22.37,22,21.45,22h-.36v3.27Z"/><path class="cls-11" d="M25,21.3h2.75V22H25.82v1.17h1.65v.69H25.82v1.35h2v.69H25Z"/><path class="cls-11" d="M28.81,25.29l.47-.56a1.78,1.78,0,0,0,1.2.53c.51,0,.79-.24.79-.6s-.29-.49-.71-.67l-.62-.27A1.31,1.31,0,0,1,29,22.5a1.39,1.39,0,0,1,1.54-1.29A2,2,0,0,1,32,21.8l-.42.51a1.45,1.45,0,0,0-1-.39c-.44,0-.72.2-.72.54s.35.49.73.65l.62.25a1.28,1.28,0,0,1,.92,1.24A1.45,1.45,0,0,1,30.46,26,2.34,2.34,0,0,1,28.81,25.29Z"/><path class="cls-11" d="M33.29,21.3h.81v2.08h0l1.63-2.08h.9l-1.4,1.78,1.64,2.8H36l-1.24-2.16-.66.82v1.34h-.81Z"/><path class="cls-11" d="M38.59,22H37.26V21.3h3.46V22H39.4v3.9h-.81Z"/><path class="cls-11" d="M41.41,23.57c0-1.48.83-2.36,2-2.36s2,.88,2,2.36-.83,2.39-2,2.39S41.41,25.05,41.41,23.57Zm3.21,0c0-1-.47-1.65-1.19-1.65s-1.18.62-1.18,1.65.46,1.69,1.18,1.69S44.62,24.6,44.62,23.57Z"/><path class="cls-11" d="M46.72,21.3h1.44c1,0,1.77.35,1.77,1.41s-.75,1.48-1.74,1.48h-.66v1.69h-.81Zm1.4,2.24c.69,0,1-.27,1-.83s-.35-.76-1-.76h-.57v1.59Z"/><path class="cls-11" d="M484.28,12.9h.86l.65,2.3c.15.52.25,1,.4,1.49h0c.15-.52.26-1,.4-1.49l.64-2.3h.83l-1.42,4.58h-1Z"/><path class="cls-11" d="M489,12.9h.81v4.58H489Z"/><path class="cls-11" d="M491,16.89l.48-.56a1.74,1.74,0,0,0,1.19.53c.51,0,.8-.24.8-.6s-.3-.49-.71-.67l-.63-.27a1.33,1.33,0,0,1-.93-1.22,1.4,1.4,0,0,1,1.54-1.29,2,2,0,0,1,1.41.59l-.41.51a1.5,1.5,0,0,0-1-.39c-.43,0-.72.2-.72.54s.35.49.73.65l.62.25a1.28,1.28,0,0,1,.93,1.24,1.46,1.46,0,0,1-1.65,1.36A2.36,2.36,0,0,1,491,16.89Z"/><path class="cls-11" d="M495.44,12.9h.81v4.58h-.81Z"/><path class="cls-11" d="M497.77,12.9h1.46c.94,0,1.63.29,1.63,1.13a1,1,0,0,1-.63,1v0a1,1,0,0,1,.88,1.08c0,.92-.75,1.35-1.76,1.35h-1.58Zm1.39,1.89c.64,0,.91-.25.91-.65s-.3-.61-.9-.61h-.59v1.26Zm.1,2.05c.68,0,1.05-.24,1.05-.75s-.36-.69-1.05-.69h-.68v1.44Z"/><path class="cls-11" d="M502.29,12.9h.82v3.89H505v.69h-2.72Z"/><path class="cls-11" d="M506.16,12.9h2.75v.68H507v1.17h1.65v.69H507v1.35h2v.69h-2.82Z"/><path class="cls-11" d="M511.78,15.17c0-1.48.83-2.36,2-2.36s2,.88,2,2.36-.82,2.39-2,2.39S511.78,16.65,511.78,15.17Zm3.21,0c0-1-.47-1.65-1.19-1.65s-1.18.62-1.18,1.65.46,1.69,1.18,1.69S515,16.2,515,15.17Z"/><path class="cls-11" d="M517.09,12.9h.84l1.42,2.57.47,1h0c0-.47-.1-1-.1-1.56v-2h.77v4.58h-.83l-1.43-2.58-.47-1h0c0,.49.1,1,.1,1.55v2h-.77Z"/><path class="cls-11" d="M488,21.3h1.22a2,2,0,0,1,2.23,2.27,2,2,0,0,1-2.19,2.31H488Zm1.17,3.92c.92,0,1.45-.53,1.45-1.65S490.12,22,489.2,22h-.36v3.27Z"/><path class="cls-11" d="M492.76,21.3h2.75V22h-1.94v1.17h1.64v.69h-1.64v1.35h2v.69h-2.82Z"/><path class="cls-11" d="M496.56,25.29l.47-.56a1.78,1.78,0,0,0,1.19.53c.52,0,.8-.24.8-.6s-.29-.49-.71-.67l-.62-.27a1.31,1.31,0,0,1-.93-1.22,1.39,1.39,0,0,1,1.54-1.29,2,2,0,0,1,1.41.59l-.42.51a1.45,1.45,0,0,0-1-.39c-.44,0-.72.2-.72.54s.35.49.73.65l.62.25a1.28,1.28,0,0,1,.92,1.24A1.45,1.45,0,0,1,498.21,26,2.34,2.34,0,0,1,496.56,25.29Z"/><path class="cls-11" d="M501,21.3h.81v2.08h0l1.63-2.08h.9L503,23.08l1.65,2.8h-.89l-1.24-2.16-.66.82v1.34H501Z"/><path class="cls-11" d="M506.34,22H505V21.3h3.46V22h-1.32v3.9h-.81Z"/><path class="cls-11" d="M509.16,23.57c0-1.48.83-2.36,2-2.36s2,.88,2,2.36-.83,2.39-2,2.39S509.16,25.05,509.16,23.57Zm3.21,0c0-1-.47-1.65-1.19-1.65s-1.18.62-1.18,1.65.46,1.69,1.18,1.69S512.37,24.6,512.37,23.57Z"/><path class="cls-11" d="M514.47,21.3h1.44c1,0,1.77.35,1.77,1.41s-.75,1.48-1.74,1.48h-.66v1.69h-.81Zm1.4,2.24c.69,0,1-.27,1-.83s-.36-.76-1-.76h-.56v1.59Z"/></g></g></svg>