<svg xmlns="http://www.w3.org/2000/svg" viewBox="0 0 174.98 116.75"><defs><style>.cls-1{fill:#e0e1e2;}.cls-2{fill:#fff;}</style></defs><title>image</title><g id="Layer_2" data-name="Layer 2"><g id="Layer_1-2" data-name="Layer 1"><rect class="cls-1" width="174.98" height="116.75"/><path class="cls-2" d="M59.07,58.38V30.49c0-.5.1-.63.63-.63q27.76,0,55.55,0c.55,0,.71.11.68.68a14.86,14.86,0,0,0,0,2.11c0,.52-.15.65-.63.57a2.16,2.16,0,0,0-.36,0q-25.84,0-51.7,0c-.6,0-.81.1-.81.78q0,24.42,0,48.86c0,.58.18.69.71.69,15.85,0,31.74,0,47.6,0,.6,0,.78.13.73.74a13.89,13.89,0,0,0,0,2c0,.53-.16.66-.63.58h-.13q-25.48,0-51,0c-.55,0-.71-.13-.71-.71Q59.09,72.27,59.07,58.38Z"/><path class="cls-2" d="M115.91,66.75q0,9.65,0,19.3c0,.55-.15.71-.68.68a20.74,20.74,0,0,0-2.23,0c-.39,0-.53-.13-.47-.5a1.61,1.61,0,0,0,0-.31c0-12.82,0-25.6,0-38.41,0-.66.18-.79.79-.77a16.35,16.35,0,0,0,2.1,0c.39,0,.52.11.52.5,0,1.63,0,3.26,0,4.91C115.91,57,115.91,61.89,115.91,66.75Z"/><path class="cls-2" d="M83,72c-.44,0-.86,0-1.31,0s-.55-.16-.37-.6l4.34-11,5.43-13.78a.68.68,0,0,1,.79-.53c.84,0,1.7,0,2.54,0,.43,0,.61,0,.43.55-2.16,5.38-4.28,10.79-6.41,16.17-1.13,2.87-2.26,5.7-3.36,8.56-.19.48-.42.63-.89.58A9.45,9.45,0,0,0,83,72Z"/><path class="cls-2" d="M105.3,59.08c-2.55-.91-5-1.78-7.38-2.62-.44-.16-.63-.34-.57-.82a16.49,16.49,0,0,0,0-1.86c0-.52.1-.66.63-.45,3.2,1.21,6.4,2.37,9.6,3.55.64.23,1.5.26,1.82.79s.08,1.28.08,1.94a2.78,2.78,0,0,0,0,.5c0,.39-.11.55-.5.68-3.68,1.34-7.35,2.7-11,4-.63.24-.63.24-.63-.47s0-1.29,0-1.92c0-.39.1-.57.49-.7C100.29,60.9,102.73,60,105.3,59.08Z"/><path class="cls-2" d="M70.8,59.11c2.52.92,4.94,1.79,7.38,2.63.39.13.58.28.55.73a18.39,18.39,0,0,0,0,2.1c0,.34,0,.5-.45.34-3.78-1.42-7.56-2.78-11.34-4.17-.26-.11-.37-.24-.31-.5v-.13c0-.82-.27-1.81.1-2.44s1.45-.66,2.21-1c3.07-1.15,6.14-2.26,9.19-3.41.55-.21.65-.05.6.44s0,.87,0,1.32c0,1.18,0,1.18-1.15,1.6-2.1.73-4.18,1.5-6.28,2.23C71.14,59,71,59,70.8,59.11Z"/></g></g></svg>