<svg xmlns="http://www.w3.org/2000/svg" viewBox="0 0 141.41 141.41"><defs><style>.cls-1{fill:#e0e1e2;}.cls-2{fill:#fff;}</style></defs><title>partner</title><g id="Layer_2" data-name="Layer 2"><g id="Layer_1-2" data-name="Layer 1"><rect class="cls-1" width="141.41" height="141.41"/><path class="cls-2" d="M42.28,70.71V42.82c0-.5.11-.63.63-.63q27.77,0,55.56,0c.55,0,.71.11.68.68a14.86,14.86,0,0,0,0,2.11c0,.52-.16.65-.63.57a2.29,2.29,0,0,0-.37,0q-25.83,0-51.69,0c-.61,0-.82.1-.82.78q0,24.42,0,48.86c0,.58.19.69.71.69,15.86,0,31.74,0,47.6,0,.61,0,.79.13.74.74a13.89,13.89,0,0,0,0,2c0,.53-.16.66-.63.58h-.13q-25.49,0-51,0c-.56,0-.71-.13-.71-.71Q42.29,84.6,42.28,70.71Z"/><path class="cls-2" d="M99.12,79.08q0,9.65,0,19.3c0,.55-.16.71-.68.68a20.74,20.74,0,0,0-2.23,0c-.4,0-.53-.13-.48-.5a1.07,1.07,0,0,0,0-.31c0-12.82,0-25.6,0-38.41,0-.66.18-.79.79-.77a16.35,16.35,0,0,0,2.1,0c.39,0,.52.11.52.5,0,1.63,0,3.26,0,4.91C99.12,69.34,99.12,74.22,99.12,79.08Z"/><path class="cls-2" d="M66.2,84.33c-.45,0-.87,0-1.31,0s-.55-.16-.37-.6l4.33-11L74.29,59a.68.68,0,0,1,.79-.53c.84,0,1.7,0,2.54,0,.42,0,.61,0,.42.55-2.15,5.38-4.28,10.79-6.4,16.17-1.13,2.87-2.26,5.7-3.36,8.56a.75.75,0,0,1-.9.58A9.29,9.29,0,0,0,66.2,84.33Z"/><path class="cls-2" d="M88.52,71.41c-2.55-.92-5-1.78-7.38-2.62-.45-.16-.63-.34-.58-.82a14.43,14.43,0,0,0,0-1.86c0-.52.11-.66.63-.45C84.4,66.87,87.6,68,90.8,69.21c.63.23,1.5.26,1.81.79s.08,1.28.08,1.94a4.17,4.17,0,0,0,0,.5c0,.39-.1.55-.5.68l-11,4c-.63.24-.63.24-.63-.47s0-1.29,0-1.92a.6.6,0,0,1,.5-.7C83.5,73.23,85.94,72.33,88.52,71.41Z"/><path class="cls-2" d="M54,71.44c2.52.92,4.93,1.79,7.38,2.63.39.13.57.28.55.73a18.39,18.39,0,0,0,0,2.1c0,.34,0,.5-.45.34-3.78-1.42-7.56-2.78-11.34-4.17-.26-.11-.37-.24-.32-.5v-.13c0-.82-.26-1.81.11-2.44s1.44-.66,2.2-1c3.08-1.15,6.15-2.26,9.19-3.41.56-.21.66,0,.61.44s0,.87,0,1.32c0,1.18,0,1.18-1.16,1.6-2.1.73-4.17,1.49-6.27,2.23C54.36,71.28,54.25,71.36,54,71.44Z"/></g></g></svg>