<svg xmlns="http://www.w3.org/2000/svg" viewBox="0 0 108.88 41.38"><defs><style>.cls-1{fill:#e0e1e2;}.cls-2{fill:#fff;}</style></defs><title>partner-logo</title><g id="Layer_2" data-name="Layer 2"><g id="Layer_1-2" data-name="Layer 1"><rect class="cls-1" width="108.88" height="41.38" rx="7.6"/><path class="cls-2" d="M17.36,17.5h2.46c1.58,0,2.85.57,2.85,2.31s-1.28,2.43-2.8,2.43H19v2.43H17.36ZM19.77,21c.89,0,1.31-.39,1.31-1.14s-.48-1-1.35-1H19V21Z"/><path class="cls-2" d="M24.81,17.5h1.94L29,24.67H27.29L26.35,21c-.2-.72-.39-1.56-.58-2.31h-.05c-.17.76-.36,1.59-.56,2.31l-.94,3.63H22.56ZM24,21.71h3.45V23H24Z"/><path class="cls-2" d="M29.8,17.5h2.58c1.52,0,2.77.53,2.77,2.24s-1.25,2.35-2.77,2.35h-1v2.58H29.8Zm2.45,3.31c.85,0,1.31-.37,1.31-1.07s-.46-.95-1.31-.95h-.83v2Zm-.16.86,1.12-1,2.29,4H33.68Z"/><path class="cls-2" d="M37.86,18.86h-2V17.5h5.57v1.36h-2v5.81H37.86Z"/><path class="cls-2" d="M42.68,17.5h1.66l1.87,3.57.71,1.57h0a26.07,26.07,0,0,1-.21-2.6V17.5H48.3v7.17H46.64L44.77,21.1l-.71-1.57h0c.08.79.21,1.75.21,2.6v2.54H42.68Z"/><path class="cls-2" d="M50.11,17.5H54.6v1.36H51.73V20.3h2.44v1.36H51.73v1.65h3v1.36h-4.6Z"/><path class="cls-2" d="M56.24,17.5h2.59c1.52,0,2.76.53,2.76,2.24s-1.24,2.35-2.76,2.35h-1v2.58H56.24Zm2.45,3.31c.86,0,1.32-.37,1.32-1.07s-.46-.95-1.32-.95h-.82v2Zm-.16.86,1.12-1,2.29,4H60.13Z"/><path class="cls-2" d="M65.41,17.5H67v5.81h2.83v1.36H65.41Z"/><path class="cls-2" d="M70.48,21.06c0-2.35,1.32-3.69,3.26-3.69S77,18.72,77,21.06s-1.32,3.75-3.25,3.75S70.48,23.4,70.48,21.06Zm4.85,0c0-1.44-.61-2.29-1.59-2.29s-1.6.85-1.6,2.29.62,2.35,1.6,2.35S75.33,22.49,75.33,21.06Z"/><path class="cls-2" d="M78.11,21.13a3.47,3.47,0,0,1,3.5-3.76,3.08,3.08,0,0,1,2.26.93l-.85,1a1.86,1.86,0,0,0-1.36-.57c-1.1,0-1.88.87-1.88,2.31s.66,2.33,2,2.33a1.27,1.27,0,0,0,.76-.22V22H81.36V20.63H84v3.31a3.45,3.45,0,0,1-2.36.87A3.37,3.37,0,0,1,78.11,21.13Z"/><path class="cls-2" d="M85.24,21.06c0-2.35,1.32-3.69,3.26-3.69s3.26,1.35,3.26,3.69-1.33,3.75-3.26,3.75S85.24,23.4,85.24,21.06Zm4.85,0c0-1.44-.61-2.29-1.59-2.29s-1.6.85-1.6,2.29.62,2.35,1.6,2.35S90.09,22.49,90.09,21.06Z"/></g></g></svg>