<svg xmlns="http://www.w3.org/2000/svg" viewBox="0 0 141.41 141.41"><defs><style>.cls-1{fill:#e0e1e2;}.cls-2{fill:#fff;}</style></defs><title>profile</title><g id="Layer_2" data-name="Layer 2"><g id="Layer_1-2" data-name="Layer 1"><path class="cls-1" d="M0,0V141.41H141.41V0ZM70.7,38.14A17.88,17.88,0,1,1,52.82,56,17.9,17.9,0,0,1,70.7,38.14ZM99.07,98a5.29,5.29,0,0,1-5.29,5.29H47.62A5.3,5.3,0,0,1,42.33,98V94.62A16.64,16.64,0,0,1,59,78a12.65,12.65,0,0,1,4.07.81,23.57,23.57,0,0,0,15.38,0,12.58,12.58,0,0,1,4-.81A16.63,16.63,0,0,1,99.07,94.62Z"/><path class="cls-2" d="M70.7,38.14A17.88,17.88,0,1,0,88.58,56,17.9,17.9,0,0,0,70.7,38.14Zm0,31.47A13.59,13.59,0,1,1,84.29,56,13.61,13.61,0,0,1,70.7,69.61Z"/><circle class="cls-1" cx="70.7" cy="56.02" r="13.59"/><path class="cls-2" d="M82.45,78a12.58,12.58,0,0,0-4,.81,23.57,23.57,0,0,1-15.38,0A12.65,12.65,0,0,0,59,78,16.64,16.64,0,0,0,42.33,94.62V98a5.3,5.3,0,0,0,5.29,5.29H93.78A5.29,5.29,0,0,0,99.07,98V94.62A16.63,16.63,0,0,0,82.45,78ZM94.78,99H46.62V94.62A12.35,12.35,0,0,1,59,82.29a10.23,10.23,0,0,1,2.84.63,27.77,27.77,0,0,0,17.83,0,10.1,10.1,0,0,1,2.83-.63A12.34,12.34,0,0,1,94.78,94.62Z"/><path class="cls-1" d="M94.78,94.62V99H46.62V94.62A12.35,12.35,0,0,1,59,82.29a10.23,10.23,0,0,1,2.84.63,27.77,27.77,0,0,0,17.83,0,10.1,10.1,0,0,1,2.83-.63A12.34,12.34,0,0,1,94.78,94.62Z"/></g></g></svg>